<svg version="1.1" id="Layer_1" xmlns="http://www.w3.org/2000/svg" xmlns:xlink="http://www.w3.org/1999/xlink" x="0px" y="0px"
	 width="100%" viewBox="0 0 288 288" enable-background="new 0 0 288 288" xml:space="preserve">
<path fill="#000000" opacity="1.000000" stroke="none" 
	d="
M221.000000,289.000000 
	C203.312439,289.000000 185.624878,289.000000 167.355652,288.542847 
	C166.727005,286.923340 166.639374,285.760986 166.638992,284.598663 
	C166.630661,258.494781 166.563919,232.390579 166.699188,206.287415 
	C166.721375,202.006165 165.299667,200.212158 160.946762,200.363449 
	C154.968262,200.571228 148.969406,200.611420 142.994385,200.361710 
	C138.584183,200.177383 137.261337,201.953064 137.299774,206.234192 
	C137.471497,225.353317 137.410858,244.474960 137.356552,263.595459 
	C137.332504,272.063934 137.124496,280.531830 137.000000,289.000000 
	C119.312439,289.000000 101.624878,289.000000 83.290627,288.721558 
	C81.994728,287.936523 81.403656,287.320801 80.687775,286.939331 
	C65.353943,278.768311 51.963055,268.222076 40.133125,255.427734 
	C23.453756,237.388596 12.317947,216.475403 5.562151,193.010361 
	C4.026843,187.677765 3.678567,182.003479 1.000000,177.000000 
	C1.000000,161.312439 1.000000,145.624878 1.229946,129.191132 
	C3.156054,126.700859 2.615003,124.332481 3.048524,122.277260 
	C9.766679,90.428009 24.789333,63.342167 48.673790,41.094425 
	C67.302818,23.741966 88.852097,12.011997 113.388336,5.372566 
	C118.914749,3.877134 124.908951,4.102483 130.000000,1.000000 
	C144.354233,1.000000 158.708450,1.000000 173.776474,1.261526 
	C175.070572,1.833306 175.624084,2.342765 176.235062,2.424963 
	C196.633118,5.169201 215.344437,12.611628 232.716156,23.353041 
	C245.585693,31.310623 257.165833,40.849037 267.098633,52.479935 
	C275.682129,62.530804 282.629242,73.535240 289.000000,85.000000 
	C289.000000,94.020897 289.000000,103.041786 288.605042,112.410919 
	C286.890106,112.631294 285.570129,112.391678 284.250153,112.391541 
	C195.949982,112.382446 107.649796,112.416771 19.349728,112.325233 
	C15.222076,112.320953 13.350040,113.880524 12.427128,117.713928 
	C6.971869,140.372894 6.744980,162.971603 12.060744,185.740250 
	C13.360399,191.306992 15.672902,192.751907 21.133690,192.741440 
	C107.434319,192.575943 193.735352,192.619278 280.036285,192.637405 
	C283.024231,192.638031 286.012085,192.873810 289.000000,193.000000 
	C289.000000,201.687561 289.000000,210.375137 288.779022,219.782562 
	C277.686127,241.521286 263.348419,259.720184 244.222702,273.808411 
	C236.786545,279.285980 228.758453,283.959961 221.000000,289.000000 
M141.387787,8.615253 
	C138.530777,9.285024 137.357849,11.040966 137.362869,14.011837 
	C137.411133,42.632385 137.404877,71.253113 137.342728,99.873634 
	C137.335342,103.269913 138.721130,104.702057 142.113098,104.645927 
	C148.434509,104.541328 154.763367,104.475403 161.080475,104.671783 
	C165.168274,104.798843 166.694504,103.185989 166.679703,99.098618 
	C166.578461,71.143898 166.641083,43.188637 166.603638,15.233606 
	C166.596512,9.920132 165.187698,8.530577 159.701187,8.444510 
	C153.879456,8.353185 148.054459,8.469313 141.387787,8.615253 
M102.551025,205.516830 
	C102.441902,203.928909 103.346909,202.196442 101.496254,200.392975 
	C93.914070,200.392975 85.938560,200.541718 77.972885,200.326294 
	C74.330650,200.227768 72.580193,201.462570 71.808937,205.102386 
	C68.251282,221.892410 62.685680,238.002686 54.836369,253.293579 
	C53.868725,255.178604 53.207275,257.079681 55.090332,258.746246 
	C61.893452,264.767059 68.764854,270.703979 77.225754,274.972748 
	C89.630959,253.297668 97.126534,230.203690 102.551025,205.516830 
M209.911682,235.801407 
	C213.918808,247.989563 219.172241,259.638641 224.940155,271.083649 
	C226.642807,274.462128 228.339127,274.984741 231.493622,272.788300 
	C237.086807,268.893860 242.415359,264.692200 247.622437,260.308960 
	C250.467484,257.914001 250.984497,255.528702 249.143631,252.073608 
	C241.202271,237.168640 236.212753,221.188522 232.534286,204.766846 
	C231.923050,202.038040 230.610352,200.315384 227.459412,200.362991 
	C220.129303,200.473770 212.796539,200.394592 205.465256,200.447403 
	C202.290329,200.470276 201.235779,201.616882 201.938828,205.171829 
	C203.940018,215.290787 207.024887,225.108032 209.911682,235.801407 
M94.145485,68.147293 
	C90.151154,56.685844 85.566925,45.483658 79.995872,34.678307 
	C77.960251,30.730110 75.730225,30.003422 72.207024,32.789658 
	C66.873779,37.007332 61.442245,41.101105 56.035721,45.225555 
	C53.851841,46.891556 53.389206,48.750183 54.710880,51.293472 
	C62.804218,66.867432 68.283234,83.397789 72.101570,100.472244 
	C72.870346,103.909935 74.569374,104.701530 77.634392,104.651695 
	C84.130577,104.546082 90.630096,104.666672 97.127525,104.610374 
	C102.377052,104.564880 103.123680,103.459457 102.132599,98.234291 
	C100.242706,88.270439 97.319130,78.584015 94.145485,68.147293 
M249.058517,52.815380 
	C251.078217,49.782101 250.358658,47.304298 247.766235,44.923302 
	C242.607437,40.185242 236.850037,36.282265 231.079514,32.364643 
	C228.148895,30.375023 226.585983,30.956598 224.923050,34.073101 
	C213.812393,54.895538 206.535294,77.011276 201.963455,100.105240 
	C201.246811,103.725266 202.703735,104.626877 205.796692,104.619987 
	C212.788101,104.604424 219.782974,104.490936 226.769623,104.675537 
	C230.326248,104.769501 231.860901,103.092285 232.565414,99.888771 
	C236.108551,83.777649 241.303268,68.234055 249.058517,52.815380 
z"/>
<path fill="#000000" opacity="1.000000" stroke="none" 
	d="
M115.447952,168.205688 
	C115.830750,170.782455 117.628372,171.413574 119.273766,172.197357 
	C122.109833,173.548279 121.394829,176.075684 121.146889,178.301361 
	C120.885307,180.649551 118.823273,180.332199 117.236107,180.352219 
	C112.408730,180.413147 107.579140,180.404846 102.752060,180.324570 
	C101.159988,180.298096 99.114449,180.563736 98.857361,178.230957 
	C98.630463,176.172119 97.795410,173.481094 100.447586,172.525208 
	C104.804787,170.954803 104.695999,167.640457 104.656425,164.024719 
	C104.565331,155.700851 104.590057,147.375000 104.650070,139.050568 
	C104.668373,136.513123 104.195183,134.362091 101.501457,133.470871 
	C97.966042,132.301163 98.490059,129.432388 98.834694,126.843552 
	C99.228317,123.886681 101.808388,124.730446 103.621353,124.670883 
	C117.673157,124.209167 117.663696,124.243103 124.739052,136.403366 
	C128.664352,143.149704 132.627579,149.874023 136.593018,156.596878 
	C136.744080,156.852982 137.097183,156.989929 137.387222,157.205505 
	C139.037750,156.805695 138.561523,155.407806 138.574539,154.384460 
	C138.640228,149.223862 138.562866,144.061356 138.637115,138.900970 
	C138.671066,136.540756 138.182068,134.420609 135.775513,133.629242 
	C131.977493,132.380310 132.331818,129.408081 132.897522,126.679237 
	C133.531158,123.622749 136.379654,124.770073 138.329727,124.692001 
	C142.651535,124.518990 146.986069,124.600113 151.313828,124.672653 
	C152.906265,124.699341 154.958725,124.404182 155.164261,126.775146 
	C155.341461,128.819382 156.256943,131.411270 153.627792,132.522293 
	C149.597000,134.225616 149.295349,137.385498 149.333405,141.109497 
	C149.450790,152.596542 149.257278,164.087173 149.418823,175.573105 
	C149.471176,179.296097 147.983887,180.087418 144.479660,180.544342 
	C137.738281,181.423355 134.248016,178.369705 131.262405,172.801651 
	C126.824188,164.524475 121.667061,156.632782 116.815887,148.577042 
	C116.348022,148.637131 115.880150,148.697205 115.412277,148.757294 
	C115.412277,155.102112 115.412277,161.446945 115.447952,168.205688 
z"/>
<path fill="#000000" opacity="1.000000" stroke="none" 
	d="
M204.394104,134.377441 
	C204.363113,136.327469 204.328918,137.825989 204.329025,139.324493 
	C204.329163,141.520233 203.931534,143.332672 201.124451,143.313766 
	C198.765656,143.297867 196.325806,143.607895 195.659622,140.399292 
	C195.007385,137.257874 193.672607,134.730896 189.969528,134.461517 
	C184.991882,134.099426 180.107956,134.433411 176.820847,138.742981 
	C172.441376,144.484665 172.198761,158.495529 176.052490,164.613556 
	C179.905594,170.730637 185.795654,172.134033 194.046722,168.795883 
	C196.507034,167.800491 198.873642,166.573471 201.513885,165.345261 
	C202.911331,167.588150 204.284851,169.792618 205.612671,171.923767 
	C197.027130,182.815018 177.159561,185.465836 166.856415,174.700668 
	C159.610565,167.129898 158.496246,157.071777 159.991547,147.105240 
	C163.570801,123.248291 185.113281,119.832359 202.728180,126.693222 
	C206.918289,128.325241 204.364120,131.397995 204.394104,134.377441 
z"/>
</svg>