<svg version="1.1" id="Layer_1" xmlns="http://www.w3.org/2000/svg" xmlns:xlink="http://www.w3.org/1999/xlink" x="0px" y="0px"
	 width="100%" viewBox="0 0 64 64" enable-background="new 0 0 64 64" xml:space="preserve">
<path fill="#000000" opacity="1.000000" stroke="none" 
	d="
M25.358538,32.922180 
	C26.626936,40.393513 25.962503,47.549480 26.052277,54.688080 
	C26.070734,56.155598 26.037663,57.805908 24.023993,58.175861 
	C22.235310,58.504490 21.219028,57.375614 20.384876,56.090649 
	C17.848557,52.183594 15.380268,48.232403 12.848940,44.322060 
	C12.141922,43.229874 11.308383,42.219585 10.143729,40.645905 
	C8.727903,45.206715 9.694242,49.299526 9.343188,53.285492 
	C9.198096,54.932915 10.214757,57.641991 7.676158,57.791729 
	C4.940961,57.953068 5.755626,55.171646 5.724656,53.556145 
	C5.609807,47.565273 5.664021,41.570549 5.709385,35.577690 
	C5.719105,34.293644 5.503087,32.748455 7.125495,32.179478 
	C8.867696,31.568489 9.979595,32.665531 10.844355,33.961536 
	C13.872483,38.499760 16.857582,43.066689 20.214956,48.162998 
	C22.584814,43.876236 21.253601,39.864796 21.713900,36.091778 
	C21.956009,34.107235 21.308712,31.167524 25.358538,32.922180 
z"/>
<path fill="#000000" opacity="1.000000" stroke="none" 
	d="
M62.367802,10.701517 
	C63.595268,13.384178 64.311516,15.851919 63.688969,18.328440 
	C62.929466,21.349806 62.155548,24.473555 58.430866,25.531143 
	C54.260197,26.715364 51.799103,24.658548 49.870312,20.877470 
	C46.565472,24.578461 43.307758,28.195990 38.508156,24.264326 
	C35.089191,21.463631 34.969948,12.688232 37.971680,9.448942 
	C40.581730,6.632330 44.646778,7.189277 49.302841,11.001408 
	C55.968307,6.548499 58.183983,6.434483 62.367802,10.701517 
M39.280689,16.526369 
	C39.430893,19.094601 38.844482,22.512867 42.687489,22.428835 
	C46.022881,22.355904 45.744453,19.153856 45.954742,16.719749 
	C45.982925,16.393543 45.964836,16.058088 45.925270,15.732122 
	C45.649319,13.458633 45.764816,10.557323 42.599567,10.596824 
	C39.578346,10.634529 39.303730,13.288941 39.280689,16.526369 
M54.043053,21.089199 
	C55.914753,23.175863 57.729645,23.194654 59.126122,20.688320 
	C59.652946,19.742804 59.846375,18.468569 59.784367,17.367117 
	C59.647083,14.928588 60.702621,11.423109 56.768421,11.258422 
	C52.872822,11.095350 53.380005,14.468326 53.305069,17.026951 
	C53.271931,18.158440 53.526112,19.298342 54.043053,21.089199 
z"/>
<path fill="#000000" opacity="1.000000" stroke="none" 
	d="
M58.189243,53.074448 
	C59.638180,48.329659 56.299297,47.399982 53.346184,46.217194 
	C49.378471,44.628029 46.299374,42.447933 46.639999,37.495071 
	C46.895161,33.784866 49.214802,32.047905 52.457199,31.830585 
	C55.912922,31.598970 59.947826,30.566010 62.404926,34.795887 
	C59.745739,37.015408 57.471035,34.961597 55.258331,35.370483 
	C53.407478,35.712509 51.365326,35.780861 50.753586,37.833805 
	C50.075737,40.108620 52.097130,41.046665 53.657021,41.902767 
	C55.250744,42.777443 57.096832,43.194321 58.684544,44.077496 
	C61.960701,45.899876 64.162033,48.414520 63.346874,52.560131 
	C62.502895,56.852325 59.473320,58.929348 55.554314,58.966530 
	C52.334324,58.997082 48.213917,59.543858 46.565727,54.712376 
	C50.603867,53.113972 54.894451,57.949924 58.189243,53.074448 
z"/>
<path fill="#000000" opacity="1.000000" stroke="none" 
	d="
M31.146540,60.049461 
	C28.208328,58.717873 29.765079,56.889187 30.405872,55.399746 
	C33.352638,48.550369 36.425617,41.755062 39.481533,34.953030 
	C40.234619,33.276768 40.990009,31.499548 43.411663,32.160370 
	C44.632309,33.349613 44.166313,34.630749 43.618366,35.850475 
	C40.291363,43.256401 36.937603,50.650314 33.583790,58.044163 
	C33.161575,58.974983 32.557335,59.747070 31.146540,60.049461 
z"/>
<path fill="#000000" opacity="1.000000" stroke="none" 
	d="
M25.220329,14.128398 
	C23.796318,14.286489 22.624058,13.984720 23.277697,12.661490 
	C24.317049,10.557417 26.085089,8.970089 28.274845,8.037457 
	C29.282021,7.608494 30.557114,7.979930 30.657883,9.098848 
	C31.134119,14.386843 31.643591,19.711113 30.271446,25.564400 
	C26.496729,23.123549 28.232107,20.186981 27.659395,17.852077 
	C27.306463,16.413204 28.850573,13.826471 25.220329,14.128398 
z"/>
<path fill="#000000" opacity="1.000000" stroke="none" 
	d="
M17.173861,19.444366 
	C13.537045,19.685328 15.154489,23.492744 12.656512,24.901360 
	C11.927197,21.341156 10.246207,18.702089 4.849643,18.820017 
	C8.914031,16.439651 12.734479,15.797698 12.203945,9.986606 
	C14.613252,13.717451 15.019877,16.943714 18.866428,17.570086 
	C20.414448,17.822165 18.567883,19.075897 17.173861,19.444366 
z"/>
</svg>